<?xml version="1.0" encoding="UTF-8" standalone="no"?>
<svg
   width="1129"
   height="663"
   viewBox="0 0 1129 663"
   version="1.1"
   id="svg29"
   sodipodi:docname="undraw_docusaurus_tree.svg"
   inkscape:version="1.4.2 (ebf0e940d0, 2025-05-08)"
   xmlns:inkscape="http://www.inkscape.org/namespaces/inkscape"
   xmlns:sodipodi="http://sodipodi.sourceforge.net/DTD/sodipodi-0.dtd"
   xmlns="http://www.w3.org/2000/svg"
   xmlns:svg="http://www.w3.org/2000/svg">
  <defs
     id="defs29" />
  <sodipodi:namedview
     id="namedview29"
     pagecolor="#ffffff"
     bordercolor="#000000"
     borderopacity="0.25"
     inkscape:showpageshadow="2"
     inkscape:pageopacity="0.0"
     inkscape:pagecheckerboard="0"
     inkscape:deskcolor="#d1d1d1"
     inkscape:zoom="0.66604553"
     inkscape:cx="525.4896"
     inkscape:cy="445.16476"
     inkscape:window-width="2560"
     inkscape:window-height="1523"
     inkscape:window-x="0"
     inkscape:window-y="0"
     inkscape:window-maximized="1"
     inkscape:current-layer="svg29" />
  <title
     id="title1">Focus on What Matters</title>
  <circle
     cx="321"
     cy="321"
     r="321"
     fill="#f2f2f2"
     id="circle1" />
  <ellipse
     cx="559"
     cy="635.49998"
     rx="514"
     ry="27.50002"
     fill="#3f3d56"
     id="ellipse1" />
  <ellipse
     cx="558"
     cy="627"
     rx="460"
     ry="22"
     opacity="0.2"
     id="ellipse2" />
  <rect
     x="131"
     y="152.5"
     width="840"
     height="50"
     fill="#3f3d56"
     id="rect2" />
  <path
     d="M166.5,727.3299A21.67009,21.67009,0,0,0,188.1701,749H984.8299A21.67009,21.67009,0,0,0,1006.5,727.3299V296h-840Z"
     transform="translate(-35.5 -118.5)"
     fill="#3f3d56"
     id="path2" />
  <path
     d="M984.8299,236H188.1701A21.67009,21.67009,0,0,0,166.5,257.6701V296h840V257.6701A21.67009,21.67009,0,0,0,984.8299,236Z"
     transform="translate(-35.5 -118.5)"
     fill="#3f3d56"
     id="path3" />
  <path
     d="M984.8299,236H188.1701A21.67009,21.67009,0,0,0,166.5,257.6701V296h840V257.6701A21.67009,21.67009,0,0,0,984.8299,236Z"
     transform="translate(-35.5 -118.5)"
     opacity="0.2"
     id="path4" />
  <circle
     cx="181"
     cy="147.5"
     r="13"
     fill="#3f3d56"
     id="circle4" />
  <circle
     cx="217"
     cy="147.5"
     r="13"
     fill="#3f3d56"
     id="circle5" />
  <circle
     cx="253"
     cy="147.5"
     r="13"
     fill="#3f3d56"
     id="circle6" />
  <rect
     x="168"
     y="213.5"
     width="766.96796"
     height="386"
     rx="12.141877"
     fill="#606060"
     id="rect6"
     style="stroke-width:1.5086;fill:#f2f2f2;fill-opacity:1" />
  <path
     class="cls-1"
     d="m 875.1509,382.81479 c -4.98343,-3.35453 -18.07903,-4.7872 -27.59967,-2.22291 -0.5134,-9.48302 -5.40274,-17.47424 -14.34818,-24.44673 l -3.31153,-2.22292 -2.20679,3.33303 c -4.33832,6.58543 -6.16612,15.35884 -5.51833,23.33393 0.51071,4.91354 2.22024,10.43723 5.51833,14.44494 -12.39137,7.18753 -23.81238,5.55595 -74.39387,5.55595 h -78.09514 c -0.22848,11.42102 1.60738,33.39217 15.57924,51.27766 1.54288,1.97563 3.23627,3.88675 5.07213,5.72798 11.35919,11.37533 28.52163,19.71598 54.186,19.74017 39.1524,0.0349 72.69778,-21.12714 93.10187,-72.29728 6.71444,0.11021 24.43865,1.20419 33.11261,-15.55775 0.21235,-0.28223 2.20679,-4.44583 2.20679,-4.44583 l -3.30615,-2.22292 z M 726.16157,372.3695 h -21.96039 v 21.96039 h 21.96039 z m 28.37111,0 h -21.96039 v 21.96039 h 21.96039 z m 28.37112,0 h -21.9604 v 21.96039 h 21.9604 z m 28.37111,0 h -21.9604 v 21.96039 h 21.9604 z m -113.48445,0 h -21.9604 v 21.96039 h 21.9604 z m 28.37111,-27.73676 h -21.96039 v 21.96039 h 21.96039 z m 28.37111,0 h -21.96039 v 21.96039 h 21.96039 z m 28.37112,0 h -21.9604 v 21.96039 h 21.9604 z m 0,-27.73945 h -21.9604 v 21.96039 h 21.9604 z"
     id="path1-4"
     style="fill:#1d63ed;stroke-width:0px" />
  <path
     d="M1088.60287,624.61594a30.11371,30.11371,0,0,0,3.98291-15.266c0-13.79652-8.54358-24.98081-19.08256-24.98081s-19.08256,11.18429-19.08256,24.98081a30.11411,30.11411,0,0,0,3.98291,15.266,31.248,31.248,0,0,0,0,30.53213,31.248,31.248,0,0,0,0,30.53208,31.248,31.248,0,0,0,0,30.53208,30.11408,30.11408,0,0,0-3.98291,15.266c0,13.79652,8.54353,24.98081,19.08256,24.98081s19.08256-11.18429,19.08256-24.98081a30.11368,30.11368,0,0,0-3.98291-15.266,31.248,31.248,0,0,0,0-30.53208,31.248,31.248,0,0,0,0-30.53208,31.248,31.248,0,0,0,0-30.53213Z"
     transform="translate(-35.5 -118.5)"
     fill="#3f3d56"
     id="path12" />
  <ellipse
     cx="1038.00321"
     cy="460.31783"
     rx="19.08256"
     ry="24.9808"
     fill="#3f3d56"
     id="ellipse12" />
  <ellipse
     cx="1038.00321"
     cy="429.78574"
     rx="19.08256"
     ry="24.9808"
     fill="#3f3d56"
     id="ellipse13" />
  <path
     d="M1144.93871,339.34489a91.61081,91.61081,0,0,0,7.10658-10.46092l-50.141-8.23491,54.22885.4033a91.566,91.566,0,0,0,1.74556-72.42605l-72.75449,37.74139,67.09658-49.32086a91.41255,91.41255,0,1,0-150.971,102.29805,91.45842,91.45842,0,0,0-10.42451,16.66946l65.0866,33.81447-69.40046-23.292a91.46011,91.46011,0,0,0,14.73837,85.83669,91.40575,91.40575,0,1,0,143.68892,0,91.41808,91.41808,0,0,0,0-113.02862Z"
     transform="translate(-35.5 -118.5)"
     fill="#3ecc5f"
     fill-rule="evenodd"
     id="path13" />
  <path
     d="M981.6885,395.8592a91.01343,91.01343,0,0,0,19.56129,56.51431,91.40575,91.40575,0,1,0,143.68892,0C1157.18982,436.82067,981.6885,385.60008,981.6885,395.8592Z"
     transform="translate(-35.5 -118.5)"
     opacity="0.1"
     id="path14" />
  <g
     id="g1"
     transform="matrix(-4.0739167,0,0,3.964585,630.91449,227.33629)">
    <path
       style="opacity:1;fill:#aa0707;fill-opacity:1;stroke:none;stroke-width:2;stroke-opacity:0.696882"
       d="m -48.922566,157.36623 12.022537,-7.80186 5.627571,14.58052 c 0,0 24.9403709,-11.12724 41.439385,-9.97615 0,0 -10.48774526,7.80186 -2.6858857,12.78994 0,0 -17.1385112,7.29026 -12.0225377,17.6501 0,0 -11.6388396,4.34858 -15.3479206,17.39431 0,0 -28.393653,-15.85951 -42.206781,-19.1849 0,0 22.893981,-16.62691 22.766082,-20.84759 z"
       id="path1"
       transform="translate(90.492129,-130.29206)" />
    <path
       d="m 14.649619,59.088188 c 2.9865,2.515701 2.9865,5.53452 0,6.540801 -2.986501,-1.006281 -2.986501,-4.0251 0,-6.540801 z"
       fill="#add8e6"
       stroke="#0000ff"
       stroke-width="0.463301"
       id="path1-7"
       style="fill:#aa0707;fill-opacity:1;stroke:none" />
    <circle
       style="fill:#ffffff;fill-opacity:1;stroke:none;stroke-width:6.61458"
       id="path3-9"
       cx="18.660749"
       cy="40.863182"
       r="4.3862667" />
    <g
       id="g15"
       transform="translate(-28.100205,-118.60152)">
      <path
         sodipodi:type="star"
         style="fill:#ffffff;fill-opacity:1;stroke:none;stroke-width:6.61458;stroke-dasharray:none;stroke-opacity:1"
         id="path12-4"
         inkscape:flatsided="false"
         sodipodi:sides="3"
         sodipodi:cx="38.846027"
         sodipodi:cy="169.70851"
         sodipodi:r1="1.3752896"
         sodipodi:r2="0.68764478"
         sodipodi:arg1="3.118341"
         sodipodi:arg2="4.1655386"
         inkscape:rounded="0"
         inkscape:randomized="0"
         d="m 37.47111,169.74049 1.017342,-0.61934 1.017343,-0.61934 0.02769,1.19071 0.02769,1.19072 -1.045034,-0.57138 z"
         inkscape:transform-center-x="0.47119125"
         inkscape:transform-center-y="-0.027588363"
         transform="matrix(1.4283571,0,0,1.7250445,-14.330951,-120.70931)" />
      <path
         id="path2-0"
         style="fill:#000000;fill-opacity:1;stroke:none;stroke-width:0.264583;stroke-opacity:1"
         d="m 61.926589,137.28603 c -1.651168,2.79905 -4.970757,6.72671 -7.654441,8.55723 -5.019966,3.42407 -7.868201,4.5674 -8.953459,4.88394 -1.08526,0.31653 -1.854132,0.76834 -2.215885,2.75798 -0.361754,1.98963 -2.420851,5.73163 -3.662826,7.32565 -1.345604,1.72701 -3.843148,5.38131 -4.385779,5.69784 -0.542629,0.31654 -2.1255,1.17582 -1.13068,2.57762 0.994824,1.4018 4.40875,4.78185 4.906161,5.3697 l 1.175638,-0.70125 3.079916,2.22984 -0.09508,-4.12895 c 0,0 6.142488,-3.73755 7.277592,-4.13721 1.135105,-0.39969 3.197643,-1.26288 5.96346,0.57567 l 11.191049,-8.58552 c 0,0 -5.281936,0.2659 -6.11849,-2.69596 -0.836554,-2.96186 5.471501,-7.18974 5.471501,-7.18974 0,0 -5.001536,0.84921 -6.194971,-2.30632 -1.582802,-4.18505 0.033,-5.67261 1.346294,-10.23052 z m -13.798252,18.68013 c 1.295483,0.54795 2.333708,1.86379 2.333708,3.52072 0,2.11027 -1.710666,3.82095 -3.820956,3.82095 -1.708905,0 -3.003724,-1.09788 -3.520715,-2.33371 0,-0.0108 5.007963,-5.00796 5.007963,-5.00796 z m -6.373255,14.55105 0.200505,3.4339 -2.396753,-2.02778 z"
         sodipodi:nodetypes="cssssssccccsccscsccsccccccc" />
      <circle
         style="fill:#000000;fill-opacity:1;stroke:none;stroke-width:0.264583;stroke-opacity:1"
         id="path4-8"
         cx="45.628506"
         cy="160.1814"
         r="2.159219" />
      <path
         style="fill:#000000;fill-opacity:1;stroke:none;stroke-width:0.264583;stroke-opacity:1"
         d="m 72.36241,157.99803 c 0,0 -8.569256,0.51159 -9.304677,-1.34295 -0.698209,-1.7607 7.162361,-7.86581 7.162361,-7.86581 0,0 -2.475545,-0.40571 -5.37177,-0.79937 -3.293409,-0.44765 -2.781812,-3.16551 -2.781812,-3.16551 0,0 8.761106,-0.19184 16.850735,5.02005 0,0 -2.813781,5.88337 -6.554837,8.15359 z"
         id="path6-3"
         sodipodi:nodetypes="cscsccc" />
      <path
         style="fill:none;fill-opacity:1;stroke:#000000;stroke-width:2;stroke-dasharray:none;stroke-opacity:1"
         d="m 68.308034,146.60856 c 5.499671,-4.09278 13.806703,-9.01048 13.806703,-9.01048 0,0 1.02319,8.69716 -5.627575,16.56296 -6.650765,7.86582 -20.527843,17.01062 -20.527843,17.01062 0,0 25.260118,7.86581 43.102078,19.24885 0,0 0.8953,-11.70279 15.731623,-17.20246 0,0 -7.99371,-9.4006 12.59808,-17.96986 0,0 -10.80749,-3.70908 2.17429,-12.78993 0,0 -27.30651,0.70344 -42.782333,10.80749"
         id="path7-9"
         sodipodi:nodetypes="ccscccccc" />
      <path
         style="fill:none;fill-opacity:1;stroke:#000000;stroke-width:2;stroke-dasharray:none;stroke-opacity:1"
         d="m 82.081977,137.79433 6.78288,20.98172 c 0,0 -4.70373,7.72728 -19.220308,17.19183"
         id="path8-7" />
      <path
         style="fill:none;fill-opacity:1;stroke:#000000;stroke-width:2;stroke-dasharray:none;stroke-opacity:1"
         d="m 88.765497,158.63752 c 0,0 14.452633,-7.48211 38.689553,-3.45328"
         id="path9-1" />
      <path
         style="fill:none;fill-opacity:1;stroke:#000000;stroke-width:2;stroke-dasharray:none;stroke-opacity:1"
         d="m 83.137927,165.22434 c 0,0 14.70843,-2.49404 31.655093,7.86581"
         id="path10-4" />
    </g>
  </g>
</svg>
